/* XPM */
static char * Lin_Regressor_xpm[] = {
"48 48 125 2",
"  	c #000000",
". 	c #009696",
"+ 	c #006565",
"@ 	c #006767",
"# 	c #0B6767",
"$ 	c #196767",
"% 	c #2A8E8E",
"& 	c #006363",
"* 	c #006666",
"= 	c #008686",
"- 	c #000909",
"; 	c #007F7F",
"> 	c #1C0000",
", 	c #410000",
"' 	c #161111",
") 	c #3F3A3A",
"! 	c #005252",
"~ 	c #000B0B",
"{ 	c #008080",
"] 	c #1B0000",
"^ 	c #3F0000",
"/ 	c #0D0D0D",
"( 	c #535353",
"_ 	c #005555",
": 	c #171717",
"< 	c #090909",
"[ 	c #585858",
"} 	c #878787",
"| 	c #141414",
"1 	c #6B6B6B",
"2 	c #575757",
"3 	c #626262",
"4 	c #080808",
"5 	c #545454",
"6 	c #101010",
"7 	c #404040",
"8 	c #232323",
"9 	c #161616",
"0 	c #2A2A2A",
"a 	c #262626",
"b 	c #363636",
"c 	c #1C1C1C",
"d 	c #494949",
"e 	c #444444",
"f 	c #6A6A6A",
"g 	c #010101",
"h 	c #4C4C4C",
"i 	c #717171",
"j 	c #380000",
"k 	c #666666",
"l 	c #0E0E0E",
"m 	c #028080",
"n 	c #080000",
"o 	c #070000",
"p 	c #200000",
"q 	c #723030",
"r 	c #211919",
"s 	c #060000",
"t 	c #045555",
"u 	c #2A8080",
"v 	c #AC0000",
"w 	c #A70000",
"x 	c #AB0707",
"y 	c #A60000",
"z 	c #AA0000",
"A 	c #535555",
"B 	c #0A1010",
"C 	c #503A3A",
"D 	c #3A0000",
"E 	c #0A0A0A",
"F 	c #6C6C6C",
"G 	c #150000",
"H 	c #919191",
"I 	c #737373",
"J 	c #4A4A4A",
"K 	c #121212",
"L 	c #2D2D2D",
"M 	c #212121",
"N 	c #292929",
"O 	c #1F1F1F",
"P 	c #383838",
"Q 	c #0B0B0B",
"R 	c #4E4E4E",
"S 	c #040404",
"T 	c #6D6D6D",
"U 	c #676767",
"V 	c #606060",
"W 	c #636363",
"X 	c #007E7E",
"Y 	c #392F2F",
"Z 	c #180F0F",
"` 	c #1D0000",
" .	c #430000",
"..	c #005050",
"+.	c #008F8F",
"@.	c #007B7B",
"#.	c #007C7C",
"$.	c #007A7A",
"%.	c #158E8E",
"&.	c #047C7C",
"*.	c #0B7C7C",
"=.	c #008989",
"-.	c #000808",
";.	c #151515",
">.	c #6E6E6E",
",.	c #030303",
"'.	c #909090",
").	c #252525",
"!.	c #323232",
"~.	c #5B5B5B",
"{.	c #222222",
"].	c #303030",
"^.	c #A1A1A1",
"/.	c #838383",
"(.	c #2E2E2E",
"_.	c #1D1D1D",
":.	c #202020",
"<.	c #646464",
"[.	c #505050",
"}.	c #C6C6C6",
"|.	c #484848",
"1.	c #3A3A3A",
"2.	c #989898",
"3.	c #A9A9A9",
"4.	c #686868",
"                                                                                                ",
"                                                                                                ",
"  . + @ @ @ @ @ @ @ @ @ @ @ @ @ @ @ @ @ @ @ @ # $ @ @ @ @ @ @ @ @ @ @ @ @ @ % & @ @ @ @ @ * = - ",
"  ;                                           > ,                         ' )               ! ~ ",
"  {                                           ] ^                       / (                 _ ~ ",
"  {                                           ] ^   : <                 [                   _ ~ ",
"  {                                           ] ^   } |               1                     _ ~ ",
"  {                                           ] ^   2               3 4                     _ ~ ",
"  {                                           ] ^                 5 6                       _ ~ ",
"  {                                           ] ^               7 8                         _ ~ ",
"  {                                           ] ^             9 0                           _ ~ ",
"  {                                           ] ^           a b                             _ ~ ",
"  {                                           ] ^         c d                               _ ~ ",
"  {                                           ] ^         e                                 _ ~ ",
"  {                                           ] ^     4 f g                                 _ ~ ",
"  {                                           ] ^     h                                     _ ~ ",
"  {                                           ] ^   i                                       _ ~ ",
"  {                                           ] j k l                                       _ ~ ",
"  m n o o o o o o o o o o o o o o o o o o o o p q r s o o o o o o o o o o o o o o o o o o n t ~ ",
"  u v w w w w w w w w w w w w w w w w w w w w x y w w w w w w w w w w w w w w w w w w w w z A ~ ",
"  {                                         B C D                                           _ ~ ",
"  {                                       E F G ^                                   H       _ ~ ",
"  {                                     g 1   ] ^                                   I       _ ~ ",
"  {                                     h     ] ^                                           _ ~ ",
"  {                                   f 4     ] ^                                           _ ~ ",
"  {                                 J         ] ^                                           _ ~ ",
"  {                               5 K         ] ^                                           _ ~ ",
"  {                             L M           ] ^                                           _ ~ ",
"  {                           N O             ] ^                                           _ ~ ",
"  {                         M P               ] ^                                           _ ~ ",
"  {                       Q R                 ] ^                                           _ ~ ",
"  {                     S T                   ] ^                                           _ ~ ",
"  {                     U                     ] ^                                           _ ~ ",
"  {                   V                       ] ^                                           _ ~ ",
"  {                 W E                       ] ^                                           _ ~ ",
"  X               Y Z                         `  .                                          ..~ ",
"  +.@.#.#.#.#.#.$.%.#.#.#.#.#.#.#.#.#.#.#.#.#.&.*.#.#.#.#.#.#.#.#.#.#.#.#.#.#.#.#.#.#.#.#.#.=.-.",
"                                                                                                ",
"                                                                                                ",
"                                                                                                ",
"                                              ;.  >.l ,.E                                       ",
"                                    '.  [ ).  !.c ~.{.].^.  /.                                  ",
"                                    d         (.| !.g       O                                   ",
"                                                                                                ",
"  f _.:.W <.[.                                                                                  ",
"  }.|.1.2.3.4.                                                                                  ",
"                                                                                                ",
"                                                                                                "};
